<svg xmlns="http://www.w3.org/2000/svg" version="1.1" xmlns:xlink="http://www.w3.org/1999/xlink" xmlns:svgjs="http://svgjs.dev/svgjs" width="2000" height="1500" viewBox="0 0 2000 1500"><rect width="2000" height="1500" fill="#000000"></rect><g transform="matrix(0.75,0,0,0.75,249.531550802139,255.40080971659916)"><svg viewBox="0 0 374 247" data-background-color="#fdf8f1" preserveAspectRatio="xMidYMid meet" height="1320" width="2000" xmlns="http://www.w3.org/2000/svg" xmlns:xlink="http://www.w3.org/1999/xlink"><g id="tight-bounds" transform="matrix(1,0,0,1,0.116800000000012,-0.09999999999999432)"><svg viewBox="0 0 373.7664 247.2" height="247.2" width="373.7664"><g><svg viewBox="0 0 373.7664 247.2" height="247.2" width="373.7664"><g><svg viewBox="0 0 373.7664 247.2" height="247.2" width="373.7664"><g id="textblocktransform"><svg viewBox="0 0 373.7664 247.2" height="247.2" width="373.7664" id="textblock"><g><svg viewBox="0 0 373.7664 247.2" height="247.2" width="373.7664"><g transform="matrix(1,0,0,1,0,0)"><svg width="373.7664" viewBox="-9 -31.25 47.25 31.25" height="247.2" data-palette-color="#1c1b1b"><path d="M38.25-31.25L36.8-23.25 29.9-23.25 25.85 0 16.35 0 20.4-23.25 13.55-23.25 15-31.25 38.25-31.25ZM15.2-2.4L14.8-0.15-6.4-2.4 15.2-2.4ZM16.9-12.05L16.5-9.8-4.7-12.05 16.9-12.05ZM17.75-16.85L17.35-14.6-3.85-16.85 17.75-16.85ZM18.6-21.65L18.2-19.4-3-21.65 18.6-21.65ZM16.05-7.25L15.65-5-5.55-7.25 16.05-7.25ZM12.55-26.45L12.2-24.2-9-26.45 12.55-26.45ZM13.4-31.25L13-29-8.15-31.25 13.4-31.25Z" opacity="1" transform="matrix(1,0,0,1,0,0)" fill="#ffffff" class="wordmark-text-0" data-fill-palette-color="primary" id="text-0"></path></svg></g></svg></g></svg></g></svg></g></svg></g><defs></defs></svg><rect width="373.7664" height="247.2" fill="none" stroke="none" visibility="hidden"></rect></g></svg></g></svg>